<svg width="20" height="20" viewBox="0 0 20 20" fill="none" xmlns="http://www.w3.org/2000/svg">
<path d="M19 2.00008C19 1.45801 18.6761 0.99164 18.2114 0.783242C18.228 0.641328 18.2428 0.501563 18.2554 0.363789C18.2722 0.18047 18.1372 0.0182433 17.9538 0.00148553C17.7705 -0.0152723 17.6083 0.119767 17.5915 0.303086C17.5804 0.424219 17.5676 0.547149 17.5533 0.671914C16.87 0.729531 16.3333 1.30211 16.3333 2.00011C16.3333 2.52046 16.6315 2.97082 17.0662 3.1905C17.0193 3.35929 16.9697 3.52597 16.9177 3.6907C16.8364 3.67519 16.7525 3.66675 16.6667 3.66675C15.9304 3.66675 15.3334 4.2639 15.3334 5.00007C15.3334 5.45323 15.5596 5.85331 15.9051 6.09425C15.8496 6.19612 15.7931 6.29659 15.7356 6.3953C15.6086 6.35518 15.4736 6.33339 15.3334 6.33339C14.597 6.33339 14.0001 6.93053 14.0001 7.6667C14.0001 7.93741 14.0809 8.18909 14.2195 8.39936C14.1181 8.50151 14.0154 8.59967 13.9114 8.69401C13.673 8.47049 13.3526 8.33338 13.0001 8.33338C12.2637 8.33338 11.6667 8.93053 11.6667 9.6667C11.6667 9.7951 11.6853 9.91912 11.7191 10.0366C11.5612 10.0921 11.4019 10.14 11.2413 10.1801C11.0469 9.68455 10.5646 9.33338 10.0001 9.33338C9.43553 9.33338 8.95327 9.68455 8.75877 10.1801C8.59827 10.14 8.43897 10.0921 8.281 10.0366C8.31487 9.91912 8.33338 9.79514 8.33338 9.66674C8.33338 8.93053 7.73639 8.33342 7.00007 8.33342C6.64745 8.33342 6.32702 8.47061 6.08858 8.69416C5.98464 8.59979 5.88194 8.50162 5.78058 8.39948C5.91921 8.1892 6.00011 7.93749 6.00011 7.66674C6.00011 6.93057 5.40312 6.33343 4.66679 6.33343C4.52656 6.33343 4.39144 6.35522 4.26449 6.39534C4.20683 6.29643 4.15038 6.19604 4.09499 6.09433C4.44054 5.85339 4.66679 5.45331 4.66679 5.00011C4.66679 4.2639 4.0698 3.66679 3.33347 3.66679C3.24761 3.66679 3.16375 3.67523 3.08238 3.69074C3.03035 3.52566 2.9807 3.35902 2.9339 3.19054C3.36859 2.97085 3.66683 2.5205 3.66683 2.00011C3.66683 1.30219 3.13019 0.729609 2.44703 0.671953C2.43297 0.549102 2.42 0.426289 2.40879 0.303438C2.39203 0.120118 2.22984 -0.0149598 2.04652 0.00179803C1.8632 0.0185558 1.72812 0.180743 1.74488 0.364063C1.75765 0.503828 1.77277 0.643476 1.78906 0.783164C1.32406 0.991405 1 1.45785 1 2.00008C1 2.71906 1.56906 3.30476 2.28136 3.3321C2.34156 3.55085 2.40617 3.76691 2.47484 3.98031C2.18461 4.22491 2.00004 4.59093 2.00004 5.00007C2.00004 5.73651 2.59695 6.33339 3.33335 6.33339C3.37691 6.33339 3.41996 6.33112 3.46242 6.32706C3.53914 6.47057 3.6182 6.61139 3.69925 6.74983C3.47265 6.98885 3.33335 7.31147 3.33335 7.66674C3.33335 8.40319 3.93027 9.00006 4.66667 9.00006C4.89023 9.00006 5.10077 8.94479 5.28585 8.84756C5.43046 8.99428 5.57792 9.13377 5.728 9.26623C5.68823 9.39268 5.66667 9.52717 5.66667 9.66674C5.66667 10.4032 6.26358 11.0001 6.99999 11.0001C7.36319 11.0001 7.69225 10.8547 7.93272 10.6192C8.17823 10.7115 8.42721 10.7875 8.67909 10.8465C8.75198 11.3869 9.14807 11.8246 9.66666 11.9581V13.3754C9.09162 13.5235 8.66666 14.0456 8.66666 14.6667C8.66666 15.288 9.09155 15.81 9.66666 15.958V17.3754C9.09162 17.5234 8.66666 18.0456 8.66666 18.6667C8.66666 19.4031 9.26358 20 9.99998 20C10.7364 20 11.3333 19.4031 11.3333 18.6667C11.3333 18.0456 10.9083 17.5234 10.3333 17.3754V15.958C10.9084 15.81 11.3333 15.288 11.3333 14.6667C11.3333 14.0456 10.9083 13.5235 10.3333 13.3754V11.9581C10.8519 11.8246 11.248 11.3869 11.3209 10.8466C11.5728 10.7874 11.8217 10.7115 12.0673 10.6192C12.3078 10.8547 12.6368 11.0001 13 11.0001C13.7364 11.0001 14.3333 10.4031 14.3333 9.66674C14.3333 9.52713 14.3117 9.39252 14.2719 9.26604C14.422 9.13366 14.5694 8.9942 14.714 8.84752C14.8991 8.94479 15.1097 9.0001 15.3333 9.0001C16.0697 9.0001 16.6666 8.40319 16.6666 7.66678C16.6666 7.31147 16.5273 6.98885 16.3006 6.74983C16.3815 6.61167 16.4606 6.47093 16.5375 6.32714C16.58 6.33124 16.623 6.33347 16.6666 6.33347C17.4031 6.33347 17.9999 5.73655 17.9999 5.00015C17.9999 4.59097 17.8153 4.22491 17.525 3.98031C17.5936 3.76742 17.6582 3.55136 17.7185 3.33218C18.4309 3.30476 19 2.71906 19 2.00008Z" fill="white"/>
</svg>
