<svg width="20" height="20" viewBox="0 0 20 20" fill="none" xmlns="http://www.w3.org/2000/svg">
<path d="M16.6666 16.6667H15.8333C15.6123 16.6667 15.4003 16.5789 15.244 16.4226C15.0878 16.2663 15 16.0543 15 15.8333V12.5C15 12.279 15.0878 12.067 15.244 11.9107C15.4003 11.7545 15.6123 11.6667 15.8333 11.6667H17.5C17.721 11.6667 17.9329 11.7545 18.0892 11.9107C18.2455 12.067 18.3333 12.279 18.3333 12.5V15C18.3333 15.442 18.1577 15.8659 17.8451 16.1785C17.5326 16.4911 17.1087 16.6667 16.6666 16.6667ZM4.16663 16.6667H3.33329C2.89127 16.6667 2.46734 16.4911 2.15478 16.1785C1.84222 15.8659 1.66663 15.442 1.66663 15V12.5C1.66663 12.279 1.75442 12.067 1.9107 11.9107C2.06698 11.7545 2.27895 11.6667 2.49996 11.6667H4.16663C4.38764 11.6667 4.5996 11.7545 4.75588 11.9107C4.91216 12.067 4.99996 12.279 4.99996 12.5V15.8333C4.99996 16.0543 4.91216 16.2663 4.75588 16.4226C4.5996 16.5789 4.38764 16.6667 4.16663 16.6667ZM11.6666 4.99999H8.33329C8.11228 4.99999 7.90032 4.91219 7.74404 4.75591C7.58776 4.59963 7.49996 4.38767 7.49996 4.16666V3.33332C7.49996 2.8913 7.67555 2.46737 7.98811 2.15481C8.30068 1.84225 8.7246 1.66666 9.16663 1.66666H10.8333C11.2753 1.66666 11.6992 1.84225 12.0118 2.15481C12.3244 2.46737 12.5 2.8913 12.5 3.33332V4.16666C12.5 4.38767 12.4122 4.59963 12.2559 4.75591C12.0996 4.91219 11.8876 4.99999 11.6666 4.99999Z" fill="white"/>
<path d="M12.5 3.33334H7.50004C6.39497 3.33334 5.33516 3.77233 4.55376 4.55373C3.77236 5.33513 3.33337 6.39494 3.33337 7.50001V16.6667C3.33337 17.1087 3.50897 17.5326 3.82153 17.8452C4.13409 18.1577 4.55801 18.3333 5.00004 18.3333H15C15.4421 18.3333 15.866 18.1577 16.1786 17.8452C16.4911 17.5326 16.6667 17.1087 16.6667 16.6667V7.50001C16.6667 6.39494 16.2277 5.33513 15.4463 4.55373C14.6649 3.77233 13.6051 3.33334 12.5 3.33334Z" fill="white"/>
<path d="M13.3333 13.3333V18.3333H6.66663V13.3333C6.66663 12.8913 6.84222 12.4674 7.15478 12.1548C7.46734 11.8423 7.89127 11.6667 8.33329 11.6667H11.6666C12.1087 11.6667 12.5326 11.8423 12.8451 12.1548C13.1577 12.4674 13.3333 12.8913 13.3333 13.3333ZM13.3333 6.66668C13.3333 6.44566 13.2455 6.2337 13.0892 6.07742C12.9329 5.92114 12.721 5.83334 12.5 5.83334H7.49996C7.27895 5.83334 7.06698 5.92114 6.9107 6.07742C6.75442 6.2337 6.66663 6.44566 6.66663 6.66668C6.66663 6.88769 6.75442 7.09965 6.9107 7.25593C7.06698 7.41221 7.27895 7.50001 7.49996 7.50001H12.5C12.721 7.50001 12.9329 7.41221 13.0892 7.25593C13.2455 7.09965 13.3333 6.88769 13.3333 6.66668Z" fill="white"/>
</svg>
