<svg width="20" height="20" viewBox="0 0 20 20" fill="none" xmlns="http://www.w3.org/2000/svg">
<g clip-path="url(#clip0_518_2)">
<path d="M13.7494 19.1663H6.24994C6.0595 19.1663 5.8929 19.0369 5.8459 18.8526C5.83797 18.8202 4.99994 15.5579 3.35806 10.5465C3.31412 10.4122 3.34095 10.2651 3.42947 10.1553C3.43131 10.1526 3.72428 9.77993 3.8628 9.273C4.03492 8.644 3.90124 8.11394 3.45447 7.65221C3.13036 7.31775 3.11083 6.80532 3.39588 6.12998C3.57959 5.6945 3.89819 5.16625 4.34192 4.55951C5.08045 3.54999 5.91177 2.66801 5.94653 2.63079C6.10462 2.46414 6.36709 2.4559 6.53432 2.61309C6.55081 2.62836 8.22011 4.16708 9.96942 4.16708C11.7303 4.16708 13.4534 2.62532 13.4704 2.60973C13.6389 2.45774 13.8971 2.46781 14.0533 2.63231C14.0881 2.66954 14.9188 3.5512 15.6573 4.56014C16.3745 5.54009 17.2467 6.9268 16.5448 7.65221C16.0986 8.11332 15.9631 8.6663 16.1426 9.29589C16.2836 9.79059 16.5668 10.1516 16.5699 10.1553C16.6584 10.2651 16.6852 10.4122 16.6413 10.5465C14.9988 15.5579 14.1614 18.8202 14.1528 18.8526C14.1059 19.0369 13.9398 19.1663 13.7494 19.1663Z" fill="white"/>
<path d="M19.9153 8.89305C19.7785 7.74193 19.4977 6.88011 19.0809 6.33111C18.9418 6.14798 18.6805 6.11227 18.4968 6.25146C18.3442 6.36744 18.2947 6.56791 18.3625 6.7376L16.6425 7.42458L16.587 7.34461C16.4552 7.15601 16.1952 7.11023 16.0066 7.24207C15.818 7.37391 15.7722 7.63361 15.904 7.82224L16.7743 9.06704C16.8055 9.1113 16.8451 9.14915 16.8903 9.17845L19.3568 10.7666C19.4252 10.8112 19.5039 10.8331 19.5826 10.8331C19.6492 10.8331 19.7163 10.8172 19.7773 10.7849C19.911 10.7141 19.9952 10.5771 19.9989 10.4266C19.9995 10.3982 20.0141 9.72378 19.9153 8.89305Z" fill="white"/>
<path d="M3.99371 7.24204C3.80511 7.1102 3.5451 7.15599 3.41326 7.34459L3.35771 7.42455L1.63771 6.73758C1.70544 6.56788 1.65603 6.36741 1.50344 6.25143C1.31973 6.11229 1.05847 6.14799 0.919326 6.33108C0.502479 6.88008 0.22169 7.74194 0.0849675 8.89303C-0.0139024 9.72375 0.000746459 10.3981 0.00133241 10.4265C0.00500439 10.577 0.0892254 10.714 0.222901 10.7848C0.283918 10.8172 0.351069 10.833 0.417594 10.833C0.496346 10.833 0.575059 10.8111 0.64342 10.7665L3.10989 9.17839C3.15505 9.14909 3.19474 9.11123 3.22587 9.06698L4.09625 7.82218C4.22809 7.63362 4.18231 7.37388 3.99371 7.24204Z" fill="white"/>
<path d="M5.70862 18.3326C5.79835 18.6658 5.84413 18.8453 5.84597 18.8526C5.89296 19.0369 6.05957 19.1663 6.25 19.1663H13.7495C13.9399 19.1663 14.1059 19.0369 14.1529 18.8526C14.1547 18.8453 14.2011 18.6658 14.2908 18.3326H5.70862Z" fill="white"/>
<path d="M19.9836 6.13759C19.7357 5.25377 19.0485 4.44535 17.9407 3.73494C17.1429 3.22313 16.4191 2.95582 16.3886 2.94481C16.1725 2.86578 15.9333 2.97684 15.8539 3.19294C15.813 3.30493 15.8234 3.42333 15.8728 3.52224L14.1247 4.39715C14.1052 4.3584 14.0795 4.32176 14.0478 4.28945C13.8848 4.12648 13.6211 4.12585 13.4582 4.28855L12.622 5.1217C12.481 5.2621 12.459 5.48241 12.5695 5.64816L14.2358 8.14788C14.3145 8.26628 14.4463 8.33343 14.5824 8.33343C14.6264 8.33343 14.671 8.3264 14.7143 8.31206L19.7143 6.64545C19.925 6.57522 20.044 6.35185 19.9836 6.13759Z" fill="white"/>
<path d="M6.54168 4.28873C6.3787 4.12607 6.11502 4.1267 5.95267 4.28963C5.92033 4.32197 5.8947 4.35858 5.87517 4.39733L4.12708 3.52242C4.17653 3.42355 4.18688 3.30515 4.14598 3.19312C4.06665 2.97706 3.82738 2.86596 3.61132 2.94498C3.58081 2.95596 2.85693 3.22331 2.05917 3.73512C0.951406 4.44557 0.26416 5.25399 0.016341 6.13777C-0.0434653 6.35199 0.0749363 6.5754 0.285528 6.64559L5.28559 8.3122C5.32891 8.32654 5.37348 8.33357 5.41743 8.33357C5.55352 8.33357 5.68536 8.26642 5.76412 8.14802L7.43037 5.6483C7.54084 5.48259 7.51889 5.26223 7.37787 5.12184L6.54168 4.28873Z" fill="white"/>
<path d="M17.2687 2.54414C17.1448 2.4825 14.2157 1.03136 12.1106 0.83546C11.9018 0.816241 11.7114 0.954487 11.6656 1.15863L11.1688 3.35377C11.1273 3.53811 11.2152 3.7273 11.3824 3.81488L13.5595 4.95288C13.6199 4.98432 13.6858 5.00018 13.7524 5.00018C13.8165 5.00018 13.88 4.98553 13.9386 4.95624L17.2687 3.28967C17.4103 3.21888 17.4994 3.07451 17.4994 2.91673C17.4988 2.75899 17.4097 2.61461 17.2687 2.54414Z" fill="white"/>
<path d="M8.33487 1.15864C8.28846 0.954454 8.09806 0.816208 7.88931 0.835467C5.78421 1.03137 2.85511 2.4825 2.7312 2.54415C2.59022 2.61466 2.50111 2.759 2.50049 2.91677C2.50049 3.07455 2.58959 3.21889 2.7312 3.28971L6.06133 4.95628C6.11992 4.98558 6.1834 5.00023 6.2475 5.00023C6.31403 5.00023 6.37997 4.98437 6.4404 4.95292L8.61753 3.81492C8.78476 3.72734 8.87265 3.53816 8.83117 3.35382L8.33487 1.15864Z" fill="white"/>
<path d="M9.9993 8.74994C9.08072 8.74994 8.33301 9.49765 8.33301 10.4165C8.33301 11.3354 9.08072 12.0831 9.9993 12.0831C10.9185 12.0831 11.6662 11.3354 11.6662 10.4165C11.6662 9.49765 10.9185 8.74994 9.9993 8.74994Z" fill="white"/>
<path d="M10.4163 10.4165C10.4163 10.6463 10.2295 10.8331 9.99939 10.8331C9.76927 10.8331 9.58313 10.6463 9.58313 10.4165C9.58313 10.1867 9.76931 9.99997 9.99939 9.99997C10.2295 9.99997 10.4163 10.1867 10.4163 10.4165Z" fill="white"/>
</g>
<defs>
<clipPath id="clip0_518_2">
<rect width="20" height="20" fill="white"/>
</clipPath>
</defs>
</svg>
