<svg width="20" height="20" viewBox="0 0 20 20" fill="none" xmlns="http://www.w3.org/2000/svg">
<path d="M9.99995 0.910767C8.93835 0.910767 7.71175 1.13538 6.89351 1.6126C6.08538 2.15065 5.20522 3.98588 5.20522 3.98588C5.08366 4.18979 4.96409 4.40221 4.84741 4.62557C3.42663 7.34538 2.44522 11.4913 2.40991 17.0352C4.22995 18.0841 6.21601 18.7746 7.95874 19.0892C7.10968 18.5065 6.37019 17.5921 5.80327 16.4478C7.24519 16.2697 8.87144 16.0644 9.99522 16.0643C11.1594 16.0643 12.8646 16.2842 14.3437 16.4663C13.7779 17.6019 13.0419 18.5096 12.1973 19.0891C13.9401 18.7746 15.7699 18.0841 17.5899 17.0352C17.5546 11.4913 16.5732 7.34534 15.1524 4.62557C15.0358 4.40221 14.9162 4.18979 14.7946 3.98592V3.98581C14.7946 3.98581 13.9145 2.15065 13.1063 1.6126C12.1876 1.14581 11.0615 0.910767 9.99991 0.910767H9.99995ZM9.99819 1.54436C11.1774 1.66506 12.2453 1.70834 12.9789 2.50803C12.2578 3.35999 11.183 4.44163 9.99886 4.44174C8.81519 4.44182 7.40386 3.23334 7.01956 2.5094C7.71175 1.7451 9.0969 1.55092 9.99819 1.54428V1.54436ZM6.66284 3.12499C6.87495 3.6167 8.71448 5.04557 9.9978 5.04881C11.2925 5.05206 13.125 3.56092 13.3718 3.12499C13.3718 3.12499 13.8515 3.85467 14.0982 4.33815L14.2759 4.76416C15.0774 6.52776 15.5499 8.38733 15.5499 10.9399C15.5499 12.7231 15.2214 14.3831 14.6564 15.7729C13.3888 15.6015 11.7674 15.4842 9.99995 15.4842C8.30022 15.4842 6.73667 15.5928 5.49183 15.7536C4.93167 14.3677 4.60628 12.7149 4.60628 10.9399C4.60628 8.38733 4.92253 6.52776 5.72397 4.76416L5.90171 4.33815C6.14753 3.85643 6.66284 3.12499 6.66284 3.12499Z" fill="white"/>
</svg>
