<svg width="20" height="20" viewBox="0 0 20 20" fill="none" xmlns="http://www.w3.org/2000/svg">
<path d="M18.75 9.21875H18.2025C17.8306 7.42375 16.2625 6.09375 14.3837 6.09375C12.59 6.09375 11.0794 7.30625 10.6263 8.95625L10.62 8.98375C10.4338 8.94687 10.2194 8.92563 10 8.92563C9.78062 8.92563 9.56688 8.94687 9.35938 8.98687L9.38062 8.98375C8.92125 7.30625 7.41063 6.09375 5.61688 6.09375C3.73813 6.09375 2.17 7.42375 1.8025 9.19312L1.79813 9.21812H1.25C0.81875 9.21812 0.46875 9.56812 0.46875 9.99937C0.46875 10.4306 0.81875 10.7806 1.25 10.7806H1.7975C2.16937 12.5756 3.73813 13.9056 5.61688 13.9056C7.57625 13.9056 9.1975 12.4594 9.4725 10.5763L9.475 10.555C9.63187 10.5044 9.8125 10.4756 10 10.4756C10.1875 10.4756 10.3681 10.5044 10.5375 10.5587L10.525 10.555C10.8019 12.4594 12.4238 13.9056 14.3831 13.9056C16.2619 13.9056 17.83 12.5756 18.1981 10.8056L18.2025 10.7806H18.75C19.1812 10.7806 19.5312 10.4306 19.5312 9.99937C19.5312 9.56812 19.1812 9.21812 18.75 9.21812V9.21875ZM5.625 12.3438C4.33062 12.3438 3.28125 11.2944 3.28125 10C3.28125 8.70562 4.33062 7.65625 5.625 7.65625C6.91938 7.65625 7.96875 8.70562 7.96875 10C7.9675 11.2937 6.91875 12.3425 5.625 12.3438ZM14.375 12.3438C13.0806 12.3438 12.0312 11.2944 12.0312 10C12.0312 8.70562 13.0806 7.65625 14.375 7.65625C15.6694 7.65625 16.7188 8.70562 16.7188 10C16.7175 11.2937 15.6687 12.3425 14.375 12.3438Z" fill="white"/>
</svg>
