<svg width="20" height="20" viewBox="0 0 20 20" fill="none" xmlns="http://www.w3.org/2000/svg">
<g clip-path="url(#clip0_510_11)">
<path d="M15.3447 6.15818V11.6404C15.3447 11.7339 15.3403 11.8262 15.3319 11.9172C15.1923 13.4213 13.9262 14.5987 12.3867 14.5987H7.61343C6.07401 14.5987 4.80776 13.4213 4.66812 11.9172L4.65503 8.44544V6.15818C4.65503 4.524 5.98046 3.20001 7.61343 3.20001H12.3867C14.0198 3.20001 15.3447 4.524 15.3447 6.15818Z" fill="white"/>
<path d="M15.3447 8.4454V11.6404C15.3447 11.7339 15.3403 11.8262 15.3319 11.9172H4.66812L4.65503 8.44544H15.3447V8.4454Z" fill="white"/>
<path d="M17.2575 10.555C14.4962 11.4657 10.0789 11.3844 10.0789 11.3844H9.92107C9.92107 11.3844 5.50353 11.4657 2.74232 10.555C-0.0184613 9.64427 -0.965102 12.7268 1.16478 14.128C3.18974 15.4599 7.85052 15.4169 10 15.389C12.1495 15.4169 16.8102 15.4599 18.8351 14.1279C20.9651 12.7268 20.0187 9.64427 17.2575 10.555Z" fill="white"/>
<path opacity="0.07" d="M17.2575 10.555C16.6746 10.7473 16.0181 10.8948 15.3448 11.0087V8.4454V6.15818C15.3447 4.524 14.0198 3.20001 12.3867 3.20001H10.0887V15.39C12.275 15.4178 16.8373 15.4423 18.8352 14.128C20.9652 12.7268 20.0187 9.64427 17.2575 10.555Z" fill="white"/>
</g>
<defs>
<clipPath id="clip0_510_11">
<rect width="20" height="20" fill="white"/>
</clipPath>
</defs>
</svg>
