<svg width="20" height="20" viewBox="0 0 20 20" fill="none" xmlns="http://www.w3.org/2000/svg">
<path d="M7.99996 3.25V9.5V4.08333C7.99996 3.39297 7.44029 2.83333 6.74996 2.83333C6.05963 2.83333 5.49996 3.39297 5.49996 4.08333V9.5V6.58333C5.49996 5.89297 4.94029 5.33333 4.24996 5.33333C3.55963 5.33333 2.99996 5.89297 2.99996 6.58333V13.6667C2.99996 16.4281 5.23854 18.6667 7.99996 18.6667H8.93938C10.2097 18.6667 11.4324 18.1832 12.3591 17.3143L16.4913 13.4404C17.0886 12.8804 17.1038 11.9372 16.5248 11.3582C15.9588 10.7922 15.0411 10.7922 14.4751 11.3582L13 12.8333V5.75C13 5.05964 12.4403 4.5 11.75 4.5C11.0596 4.5 10.5 5.05964 10.5 5.75V9.5V3.25C10.5 2.55964 9.94029 2 9.24996 2C8.55963 2 7.99996 2.55964 7.99996 3.25Z" fill="white"/>
</svg>
