<svg width="20" height="20" viewBox="0 0 20 20" fill="none" xmlns="http://www.w3.org/2000/svg">
<path d="M11.9494 3.25V9.5V4.08333C11.9494 3.39297 12.509 2.83333 13.1994 2.83333C13.8897 2.83333 14.4494 3.39297 14.4494 4.08333V9.5V6.58333C14.4494 5.89297 15.009 5.33333 15.6994 5.33333C16.3897 5.33333 16.9494 5.89297 16.9494 6.58333V13.6667C16.9494 16.4281 14.7108 18.6667 11.9494 18.6667H11.01C9.73963 18.6667 8.51698 18.1832 7.59025 17.3143L3.45809 13.4404C2.86076 12.8804 2.84555 11.9372 3.42451 11.3582C3.99054 10.7922 4.90824 10.7922 5.47426 11.3582L6.94939 12.8333V5.75C6.94939 5.05964 7.50903 4.5 8.19939 4.5C8.88971 4.5 9.44938 5.05964 9.44938 5.75V9.5V3.25C9.44938 2.55964 10.009 2 10.6994 2C11.3897 2 11.9494 2.55964 11.9494 3.25Z" fill="white"/>
</svg>
