<svg width="20" height="20" viewBox="0 0 20 20" fill="none" xmlns="http://www.w3.org/2000/svg">
<path d="M2.91663 11.25C2.91562 12.5666 3.2816 13.8575 3.97349 14.9777C4.66539 16.0979 5.65581 17.0031 6.83358 17.5917C8.01136 18.1802 9.32987 18.4289 10.6411 18.3097C11.9524 18.1905 13.2044 17.7082 14.2568 16.917C15.3092 16.1257 16.1202 15.0568 16.5988 13.8302C17.0774 12.6036 17.2046 11.2679 16.9662 9.97303C16.7279 8.67814 16.1333 7.47532 15.2493 6.49957C14.3653 5.52383 13.2268 4.81379 11.9616 4.44916L12.9166 2.96332L12.1875 1.66666H7.81246L7.08329 2.96332L8.03829 4.44916C6.56343 4.8755 5.26678 5.769 4.34321 6.99537C3.41963 8.22175 2.91903 9.71474 2.91663 11.25ZM9.99996 5.83332C11.0713 5.83332 12.1185 6.151 13.0093 6.7462C13.9001 7.34139 14.5943 8.18735 15.0043 9.17712C15.4143 10.1669 15.5216 11.256 15.3125 12.3067C15.1035 13.3575 14.5877 14.3226 13.8301 15.0801C13.0726 15.8377 12.1074 16.3536 11.0567 16.5626C10.006 16.7716 8.91686 16.6643 7.92709 16.2543C6.93733 15.8444 6.09136 15.1501 5.49617 14.2593C4.90098 13.3686 4.58329 12.3213 4.58329 11.25C4.58506 9.81394 5.15631 8.43722 6.17175 7.42178C7.18719 6.40634 8.56391 5.83509 9.99996 5.83332Z" fill="white"/>
</svg>
