<svg width="40" height="40" viewBox="0 0 40 40" fill="none" xmlns="http://www.w3.org/2000/svg">
<g clip-path="url(#clip0_526_27)">
<path fill-rule="evenodd" clip-rule="evenodd" d="M4 0C1.79086 0 0 1.79086 0 4V36C0 38.2091 1.79086 40 4 40H36C38.2091 40 40 38.2091 40 36V4C40 1.79086 38.2091 0 36 0H4ZM6 2C3.79086 2 2 3.79086 2 6V34C2 36.2091 3.79086 38 6 38H34C36.2091 38 38 36.2091 38 34V6C38 3.79086 36.2091 2 34 2H6Z" fill="white"/>
</g>
<defs>
<clipPath id="clip0_526_27">
<rect width="40" height="40" fill="white"/>
</clipPath>
</defs>
</svg>
