<svg width="25" height="25" viewBox="0 0 25 25" fill="none" xmlns="http://www.w3.org/2000/svg">
<path d="M10.975 13V15L8.71895 16.7821L7.89124 18.966L8.91657 22.3292L10.975 23.7895L13.4418 24.0549L15.7433 22.7513C15.7433 22.7513 16.9681 20.7442 17.0039 20.5974C17.0396 20.4506 16.9184 17.9474 16.8647 17.8102C16.811 17.673 16.2516 16.2733 16.2516 16.2733L14 15V13" fill="#46C8FF"/>
<path d="M12.5223 24.6009C9.66723 24.6009 7.34448 22.2781 7.34448 19.4231C7.34448 17.5377 8.38433 15.7954 10.0216 14.8901V2.87581C10.0216 1.49652 11.1434 0.374329 12.5223 0.374329C13.9012 0.374329 15.023 1.49644 15.023 2.87581V14.89C16.6601 15.7951 17.7001 17.5375 17.7001 19.4231C17.7001 22.2781 15.3773 24.6009 12.5223 24.6009ZM12.5223 1.46702C11.7459 1.46702 11.1143 2.09899 11.1143 2.87581V15.2248C11.1143 15.3288 11.0846 15.4306 11.0287 15.5184C10.9728 15.6061 10.8931 15.676 10.7988 15.72C9.36417 16.3887 8.43717 17.8423 8.43717 19.4231C8.43717 21.6756 10.2698 23.5082 12.5223 23.5082C14.7748 23.5082 16.6074 21.6756 16.6074 19.4231C16.6074 17.8419 15.6805 16.3883 14.2459 15.72C14.1516 15.6761 14.0718 15.6062 14.0159 15.5184C13.96 15.4307 13.9303 15.3288 13.9303 15.2248V2.87581C13.9303 2.09899 13.2986 1.46702 12.5223 1.46702Z" fill="#469BFF"/>
</svg>
