<svg width="140" height="31" viewBox="0 0 140 31" fill="none" xmlns="http://www.w3.org/2000/svg">
<g clip-path="url(#clip0_447_30)">
<path fill-rule="evenodd" clip-rule="evenodd" d="M0 2C0 0.89543 0.895431 0 2 0H138C139.105 0 140 0.89543 140 2V29C140 30.1046 139.105 31 138 31H2C0.895426 31 0 30.1046 0 29V2ZM2 4C2 2.89543 2.89543 2 4 2H27C28.1046 2 29 2.89543 29 4V27C29 28.1046 28.1046 29 27 29H4C2.89543 29 2 28.1046 2 27V4ZM35 2C33.8954 2 33 2.89543 33 4V27C33 28.1046 33.8954 29 35 29H136C137.105 29 138 28.1046 138 27V4C138 2.89543 137.105 2 136 2H35ZM32 12C32 12.5523 31.5523 13 31 13C30.4477 13 30 12.5523 30 12C30 11.4477 30.4477 11 31 11C31.5523 11 32 11.4477 32 12ZM31 20C31.5523 20 32 19.5523 32 19C32 18.4477 31.5523 18 31 18C30.4477 18 30 18.4477 30 19C30 19.5523 30.4477 20 31 20Z" fill="white"/>
</g>
<defs>
<clipPath id="clip0_447_30">
<rect width="140" height="31" fill="white"/>
</clipPath>
</defs>
</svg>
