<svg width="25" height="25" viewBox="0 0 25 25" fill="none" xmlns="http://www.w3.org/2000/svg">
<path fill-rule="evenodd" clip-rule="evenodd" d="M12.3253 0L23.1506 5.25H23.1452V10.4973L12.3254 5.25L1.50525 10.4975V5.25H1.5L12.3253 0ZM1.50525 10.5V10.4975L1.50012 10.5H1.50525ZM23.1452 10.5H23.1508L23.1452 10.4973V10.5Z" fill="white"/>
<path fill-rule="evenodd" clip-rule="evenodd" d="M12.3253 7.25L23.1506 12.5H23.1452V17.7473L12.3254 12.5L1.50525 17.7475V12.5H1.5L12.3253 7.25ZM1.50525 17.75V17.7475L1.50012 17.75H1.50525ZM23.1452 17.75H23.1508L23.1452 17.7473V17.75Z" fill="white"/>
<path fill-rule="evenodd" clip-rule="evenodd" d="M12.3253 14.5L23.1506 19.75H23.1452V24.9973L12.3254 19.75L1.50525 24.9975V19.75H1.5L12.3253 14.5ZM1.50525 25V24.9975L1.50012 25H1.50525ZM23.1452 25H23.1508L23.1452 24.9973V25Z" fill="white"/>
</svg>
