<svg width="25" height="25" viewBox="0 0 25 25" fill="none" xmlns="http://www.w3.org/2000/svg">
<path d="M24.6004 9.65308C24.4997 9.17676 24.3983 8.75786 24.3206 8.40967C24.2424 8.06284 24.1903 7.78154 24.1809 7.60942C24.1399 6.91914 23.9753 6.32378 23.7182 5.82559C23.5257 5.45225 23.282 5.13457 23.0079 4.87217C22.5967 4.47847 22.119 4.20918 21.6383 4.03848C21.1567 3.86816 20.6709 3.79468 20.2242 3.79468C19.8068 3.79468 18.2053 3.80415 16.7042 3.81362C15.2037 3.8231 13.8065 3.83218 13.8065 3.83218H13.8098C13.2117 3.83291 12.6353 4.04429 12.1957 4.43369C11.9765 4.62837 11.7923 4.86929 11.6639 5.14727C11.5356 5.4249 11.4643 5.74004 11.4645 6.07373C11.4645 6.10103 11.4652 6.12905 11.4661 6.15708C11.4681 6.21309 11.4687 6.26987 11.4687 6.32627C11.4687 6.96777 11.3437 7.57261 11.1255 8.14141C10.7989 8.99399 10.2594 9.76694 9.62568 10.4285C8.99253 11.09 8.2665 11.6384 7.58638 12.0435C6.53164 12.6723 5.64282 13.026 4.93013 13.2239C4.21694 13.4215 3.67993 13.4634 3.32046 13.4634C3.20459 13.4634 3.10718 13.459 3.02642 13.4539C2.94531 13.4484 2.88286 13.4419 2.827 13.4368L2.82788 13.4372C2.74819 13.4299 2.66938 13.4263 2.5915 13.4263C2.18774 13.4255 1.80859 13.5245 1.48125 13.7014C1.23525 13.8334 1.01821 14.0078 0.833154 14.2101C0.555713 14.5143 0.348633 14.8812 0.209766 15.2807C0.0709961 15.6807 0 16.1144 0 16.5598C0 17.0449 0.0844238 17.5445 0.263867 18.0274C0.443066 18.5099 0.717822 18.9757 1.09697 19.3862C1.44854 19.7668 1.88408 20.0586 2.36333 20.2894L2.927 20.5601L3.13774 19.6951L3.52217 19.7446L3.50488 20.7195L3.90371 20.8127C4.52563 20.9575 5.18081 21.0496 5.83931 21.1086L6.33276 21.1522L6.42334 20.3367H6.81089L6.90474 21.1802L7.34561 21.1922C7.70459 21.2021 8.05557 21.2053 8.39365 21.2053C8.63638 21.2053 8.87236 21.2036 9.09907 21.2013L9.54741 21.197L9.63057 20.4491H10.0181L10.1007 21.1918L10.5604 21.1853C11.1805 21.177 11.682 21.0783 12.09 20.9255C12.396 20.8109 12.6477 20.666 12.8531 20.5168C13.1606 20.2934 13.3673 20.0602 13.5056 19.9229C13.5618 19.8658 13.6047 19.8287 13.6276 19.812C14.0294 19.812 14.9081 19.812 15.4508 19.812C15.4539 19.8287 15.4563 19.8451 15.4597 19.8622C15.4914 20.0114 15.5388 20.1657 15.6125 20.3186C15.6678 20.4328 15.7378 20.5463 15.8271 20.6526C15.9601 20.8113 16.1378 20.9517 16.3514 21.0456C16.5645 21.1402 16.8087 21.1872 17.0736 21.1868C17.23 21.1868 17.4684 21.1868 17.7601 21.1868H18.2137L18.2956 20.4492H18.6832L18.765 21.1868H19.2185C19.7366 21.1868 20.2837 21.1868 20.7987 21.1868H21.2517L21.3337 20.4492H21.7215L21.8036 21.1868H22.2566C22.5659 21.1868 22.8081 21.1868 22.944 21.1868C23.1756 21.1868 23.404 21.1603 23.6234 21.0911C23.7877 21.0391 23.9477 20.9619 24.0914 20.8549C24.3084 20.6956 24.4818 20.4678 24.5886 20.2032C24.6963 19.9379 24.7442 19.6388 24.7445 19.3054C24.7445 18.7989 24.7445 17.8986 24.7445 17.1253C24.7445 16.7385 24.7445 16.3829 24.7445 16.1242C24.7445 15.947 24.7445 15.8171 24.7445 15.752C24.9281 14.8313 25 13.9575 25 13.146C25 11.791 24.8019 10.6061 24.6004 9.65308Z" fill="white"/>
</svg>
