<svg width="25" height="25" viewBox="0 0 25 25" fill="none" xmlns="http://www.w3.org/2000/svg">
<path d="M14.5833 3.64581V11.4583V4.68748C14.5833 3.82453 15.2829 3.12498 16.1458 3.12498C17.0087 3.12498 17.7083 3.82453 17.7083 4.68748V11.4583V7.81248C17.7083 6.94953 18.4079 6.24998 19.2708 6.24998C20.1337 6.24998 20.8333 6.94953 20.8333 7.81248V16.6666C20.8333 20.1184 18.0351 22.9166 14.5833 22.9166H13.4091C11.8211 22.9166 10.2928 22.3123 9.13442 21.2262L3.96922 16.3838C3.22255 15.6838 3.20354 14.5048 3.92725 13.781C4.63478 13.0735 5.78191 13.0735 6.48943 13.781L8.33334 15.625V6.77081C8.33334 5.90787 9.03289 5.20831 9.89584 5.20831C10.7587 5.20831 11.4583 5.90787 11.4583 6.77081V11.4583V3.64581C11.4583 2.78287 12.1579 2.08331 13.0208 2.08331C13.8837 2.08331 14.5833 2.78287 14.5833 3.64581Z" fill="white"/>
</svg>
