<svg width="25" height="25" viewBox="0 0 25 25" fill="none" xmlns="http://www.w3.org/2000/svg">
<g clip-path="url(#clip0_458_69)">
<path d="M16.2797 9.18612C15.9607 8.86708 15.4432 8.86708 15.1242 9.18612L0.705139 23.6051C0.386047 23.9242 0.386047 24.4416 0.705139 24.7607C0.864709 24.9202 1.07384 25 1.28297 25C1.4921 25 1.70123 24.9202 1.86071 24.7607L16.2797 10.3417C16.5989 10.0226 16.5988 9.50516 16.2797 9.18612Z" fill="white"/>
<path d="M16.2797 9.18614C16.2652 9.17164 16.2499 9.15851 16.2346 9.14532L0.664307 24.7156C0.67749 24.7308 0.690625 24.7462 0.705127 24.7607C0.864697 24.9203 1.07383 25.0001 1.28296 25C1.49209 25 1.70122 24.9202 1.86069 24.7607L16.2797 10.3417C16.5989 10.0226 16.5988 9.50519 16.2797 9.18614Z" fill="white"/>
<path d="M22.1837 10.7289L20.2908 8.19243L21.3072 5.19507C21.4071 4.90054 21.3311 4.57476 21.1112 4.35483C20.8913 4.13491 20.5655 4.05889 20.271 4.15879L17.2736 5.1752L14.737 3.28233C14.4879 3.09634 14.1546 3.06787 13.8774 3.20913C13.6003 3.35039 13.4274 3.63667 13.4313 3.94766L13.4718 7.11245L10.8876 8.93989C10.6337 9.11948 10.5037 9.42764 10.5523 9.73491C10.6009 10.0421 10.8198 10.295 11.1168 10.3874L14.1392 11.3269L15.0786 14.3492C15.171 14.6462 15.4239 14.8651 15.7311 14.9137C15.7739 14.9205 15.8166 14.9238 15.8591 14.9238C16.1216 14.9238 16.3715 14.7971 16.5261 14.5785L18.3536 11.9943L21.5184 12.0347C21.8271 12.0372 22.1157 11.8657 22.2569 11.5886C22.3982 11.3116 22.3697 10.9782 22.1837 10.7289Z" fill="white"/>
<path d="M7.81318 2.09216L8.46548 3.28484L9.65815 3.93713L8.46548 4.58938L7.81318 5.78206L7.16094 4.58938L5.96826 3.93713L7.16094 3.28484L7.81318 2.09216Z" fill="white"/>
<path d="M17.1942 17.8092L17.7219 18.7739L18.6866 19.3015L17.7219 19.8291L17.1942 20.7938L16.6667 19.8291L15.7019 19.3015L16.6667 18.7739L17.1942 17.8092Z" fill="white"/>
<path d="M17.9364 0L18.464 0.964697L19.4287 1.49233L18.464 2.01992L17.9364 2.98467L17.4087 2.01992L16.4441 1.49233L17.4087 0.964697L17.9364 0Z" fill="white"/>
<path d="M23.6409 6.38129L23.9567 6.95868L24.534 7.2744L23.9567 7.59017L23.6409 8.16752L23.3252 7.59017L22.7478 7.2744L23.3252 6.95868L23.6409 6.38129Z" fill="white"/>
<path d="M24.0541 14.3612L23.6715 15.6673L24.0541 16.9734L22.748 16.5908L21.4419 16.9734L21.8244 15.6673L21.4419 14.3612L22.748 14.7437L24.0541 14.3612Z" fill="white"/>
<path d="M22.2569 11.5886C22.3981 11.3115 22.3698 10.9782 22.1837 10.7289L20.2909 8.19243L21.3073 5.19502C21.4072 4.90049 21.3312 4.57471 21.1113 4.35479C21.0968 4.34033 21.082 4.32666 21.0667 4.31348L14.0737 11.3064L14.1393 11.3268L15.0788 14.3491C15.1711 14.6461 15.424 14.865 15.7313 14.9136C15.774 14.9204 15.8167 14.9237 15.8593 14.9237C16.1217 14.9237 16.3717 14.797 16.5263 14.5784L18.3537 11.9942L21.5185 12.0346C21.8271 12.0372 22.1157 11.8657 22.2569 11.5886Z" fill="white"/>
</g>
<defs>
<clipPath id="clip0_458_69">
<rect width="25" height="25" fill="white"/>
</clipPath>
</defs>
</svg>
