<svg width="25" height="25" viewBox="0 0 25 25" fill="none" xmlns="http://www.w3.org/2000/svg">
<g clip-path="url(#clip0_446_11)">
<path d="M23.5 12.5C21.6213 11.5148 20.7465 11.8558 19.2869 13.2588C18.2732 12.8725 17.1121 12.7473 15.9157 12.927C14.3232 13.1647 12.9508 13.9033 12.0168 14.9659C11.3719 14.6503 10.6721 14.4514 9.95404 14.3871C9.85991 14.3786 9.75897 14.3748 9.65589 14.3756C9.74449 13.9126 9.79432 13.433 9.7973 12.9407C9.80156 12.2958 9.73299 11.6561 9.66654 11.0372C9.6116 10.5248 9.55495 9.99498 9.54302 9.48046C9.5328 9.05283 9.55665 8.62648 9.60606 8.20354L12.8712 8.61157C12.8899 8.61285 12.9078 8.61413 12.9253 8.61413C13.0262 8.61413 13.125 8.57793 13.2021 8.51148L16.1836 5.95594C16.3476 5.81581 16.3804 5.57559 16.2611 5.3967L15.5141 4.27566C15.6414 4.04226 15.7147 3.78117 15.7087 3.50772C15.6989 3.04943 15.4872 2.62223 15.1299 2.336L12.5986 0.310735C12.0415 -0.134782 11.2578 -0.141597 10.693 0.292846L5.87028 4.0035L5.71269 4.11126C5.48482 4.21731 5.22586 4.35276 5.0031 4.54868C4.56184 4.9367 4.37315 5.50786 4.20747 6.01216C4.16104 6.15399 4.11504 6.29327 4.06479 6.42275L1.5135 12.9615C1.29585 13.5195 1.09865 14.6537 0.90826 15.7501C0.800501 16.3698 0.699131 16.9554 0.617354 17.2762C0.584984 17.4027 0.554743 17.5304 0.524502 17.6582C0.405244 18.1634 0.292374 18.64 0.0572635 19.0454C-0.0594397 19.2473 0.00785631 19.5059 0.208041 19.6247L1.70857 20.5162C5.73058 22.9052 10.7595 24.5535 15.1614 24.9258C15.5026 24.9547 15.9323 24.9718 16.423 24.9718C18.8716 24.9718 22.5604 24.338 24.26 22.7926C25.3436 21.117 24.3143 12.927 23.5 12.5Z" fill="white"/>
</g>
<defs>
<clipPath id="clip0_446_11">
<rect width="25" height="25" fill="white"/>
</clipPath>
</defs>
</svg>
