<svg width="25" height="25" viewBox="0 0 25 25" fill="none" xmlns="http://www.w3.org/2000/svg">
<path fill-rule="evenodd" clip-rule="evenodd" d="M13.235 1.34519L13.2339 1.3441L13.2316 1.34181L13.228 1.33839C13.2262 1.33661 13.2256 1.33609 13.2256 1.33609L13.2269 1.33725C13.2296 1.33989 13.2323 1.34253 13.235 1.34519ZM11.7731 1.33725C11.771 1.3391 11.7668 1.34307 11.76 1.34906C11.7416 1.36527 11.7052 1.39631 11.6489 1.44015C11.5363 1.52778 11.343 1.66693 11.0526 1.84118C10.472 2.18955 9.50035 2.67967 8.00393 3.17848C6.47311 3.68875 5.4739 3.9367 4.87383 4.05671C4.57424 4.11662 4.37631 4.14422 4.26322 4.15678C4.20677 4.16305 4.17186 4.16554 4.15636 4.16645C4.15321 4.16664 4.14932 4.16683 4.14932 4.16683C3.58203 4.17609 3.125 4.63885 3.125 5.20835V12.5C3.125 16.09 5.50182 18.9587 7.6474 20.8361C8.74206 21.7939 9.83181 22.5425 10.6458 23.0513C11.1624 23.3742 11.6716 23.6931 12.2463 23.884C12.4109 23.9387 12.5891 23.9387 12.7537 23.884C13.3284 23.6931 13.8376 23.3742 14.3542 23.0513C15.1682 22.5425 16.2579 21.7939 17.3526 20.8361C19.4982 18.9587 21.875 16.09 21.875 12.5V5.20835C21.875 4.63884 21.418 4.17608 20.8506 4.16683C20.8506 4.16683 20.8468 4.16664 20.8436 4.16645C20.8281 4.16554 20.7932 4.16305 20.7368 4.15678C20.6236 4.14422 20.4257 4.11662 20.1261 4.05671C19.5261 3.9367 18.5269 3.68875 16.996 3.17848C15.4997 2.67967 14.528 2.18955 13.9474 1.84118C13.657 1.66693 13.4637 1.52778 13.3511 1.44015C13.2948 1.39631 13.2584 1.36527 13.2401 1.34906C13.2332 1.34307 13.229 1.3391 13.2269 1.33725C12.8226 0.943166 12.1774 0.943166 11.7731 1.33725Z" fill="white"/>
</svg>
