<svg width="25" height="25" viewBox="0 0 25 25" fill="none" xmlns="http://www.w3.org/2000/svg">
<path d="M20.8334 20.8333H19.7917C19.5154 20.8333 19.2505 20.7236 19.0551 20.5282C18.8598 20.3329 18.75 20.0679 18.75 19.7916V15.625C18.75 15.3487 18.8598 15.0838 19.0551 14.8884C19.2505 14.6931 19.5154 14.5833 19.7917 14.5833H21.875C22.1513 14.5833 22.4163 14.6931 22.6116 14.8884C22.807 15.0838 22.9167 15.3487 22.9167 15.625V18.75C22.9167 19.3025 22.6972 19.8324 22.3065 20.2231C21.9158 20.6138 21.3859 20.8333 20.8334 20.8333ZM5.20837 20.8333H4.16671C3.61417 20.8333 3.08427 20.6138 2.69357 20.2231C2.30287 19.8324 2.08337 19.3025 2.08337 18.75V15.625C2.08337 15.3487 2.19312 15.0838 2.38847 14.8884C2.58382 14.6931 2.84877 14.5833 3.12504 14.5833H5.20837C5.48464 14.5833 5.74959 14.6931 5.94494 14.8884C6.14029 15.0838 6.25004 15.3487 6.25004 15.625V19.7916C6.25004 20.0679 6.14029 20.3329 5.94494 20.5282C5.74959 20.7236 5.48464 20.8333 5.20837 20.8333ZM14.5834 6.24998H10.4167C10.1404 6.24998 9.87549 6.14023 9.68014 5.94488C9.48479 5.74953 9.37504 5.48458 9.37504 5.20831V4.16665C9.37504 3.61411 9.59453 3.08421 9.98523 2.69351C10.3759 2.30281 10.9058 2.08331 11.4584 2.08331H13.5417C14.0942 2.08331 14.6241 2.30281 15.0148 2.69351C15.4055 3.08421 15.625 3.61411 15.625 4.16665V5.20831C15.625 5.48458 15.5153 5.74953 15.3199 5.94488C15.1246 6.14023 14.8596 6.24998 14.5834 6.24998Z" fill="#8F00FF"/>
<path d="M15.625 4.16669H9.37496C7.99362 4.16669 6.66886 4.71542 5.69211 5.69217C4.71536 6.66892 4.16663 7.99368 4.16663 9.37502V20.8334C4.16663 21.3859 4.38612 21.9158 4.77682 22.3065C5.16752 22.6972 5.69742 22.9167 6.24996 22.9167H18.75C19.3025 22.9167 19.8324 22.6972 20.2231 22.3065C20.6138 21.9158 20.8333 21.3859 20.8333 20.8334V9.37502C20.8333 7.99368 20.2846 6.66892 19.3078 5.69217C18.3311 4.71542 17.0063 4.16669 15.625 4.16669Z" fill="#F0A514"/>
<path d="M16.6667 16.6667V22.9167H8.33337V16.6667C8.33337 16.1142 8.55287 15.5842 8.94357 15.1935C9.33427 14.8028 9.86417 14.5834 10.4167 14.5834H14.5834C15.1359 14.5834 15.6658 14.8028 16.0565 15.1935C16.4472 15.5842 16.6667 16.1142 16.6667 16.6667ZM16.6667 8.33335C16.6667 8.05709 16.557 7.79213 16.3616 7.59678C16.1663 7.40143 15.9013 7.29169 15.625 7.29169H9.37504C9.09877 7.29169 8.83382 7.40143 8.63847 7.59678C8.44312 7.79213 8.33337 8.05709 8.33337 8.33335C8.33337 8.60962 8.44312 8.87457 8.63847 9.06992C8.83382 9.26527 9.09877 9.37502 9.37504 9.37502H15.625C15.9013 9.37502 16.1663 9.26527 16.3616 9.06992C16.557 8.87457 16.6667 8.60962 16.6667 8.33335Z" fill="#8F00FF"/>
</svg>
