<svg width="25" height="25" viewBox="0 0 25 25" fill="none" xmlns="http://www.w3.org/2000/svg">
<g clip-path="url(#clip0_480_108)">
<path d="M6.10059 24.2334C5.127 25.207 3.54292 25.207 2.56934 24.2334C2.23995 23.904 2.01431 23.4954 1.90811 23.0555C1.46822 22.9493 1.05968 22.7237 0.730187 22.3943C-0.243396 21.4207 -0.243396 19.8366 0.730187 18.863C1.50802 18.0852 2.67593 17.9297 3.61021 18.3947L5.87876 16.1262C6.27124 15.7337 6.90825 15.7337 7.30073 16.1262L8.89096 17.7164C9.28393 18.1094 9.28344 18.7459 8.89096 19.1384L6.60391 21.4254C7.02632 22.3475 6.85849 23.4756 6.10059 24.2334Z" fill="#CCE6FF"/>
<path d="M6.10055 24.2335C5.12697 25.207 3.54289 25.207 2.56931 24.2335C2.23992 23.9041 2.01428 23.4954 1.90808 23.0555L8.0691 16.8945L8.89098 17.7164C9.28395 18.1093 9.28346 18.7459 8.89098 19.1383L6.60392 21.4254C7.02628 22.3475 6.85846 23.4756 6.10055 24.2335Z" fill="#BDDEFF"/>
<path d="M22.6431 13.7923L20.8177 15.6177C19.646 16.7894 18.1619 17.5605 16.5256 17.8478C15.162 18.0872 13.7797 17.9762 12.4872 17.5321L11.0576 18.9617C10.3523 19.667 9.20383 19.6675 8.49802 18.9617L6.08728 16.5509C5.38147 15.8451 5.38196 14.6966 6.08728 13.9913L7.51115 12.5674C6.51335 9.6755 7.23908 6.39787 9.41852 4.21843L11.2439 2.39305C14.3742 -0.73722 19.4602 -0.749525 22.6061 2.3575C22.6189 2.36937 22.6308 2.38123 22.6431 2.39349C25.7857 5.53621 25.7857 10.6497 22.6431 13.7923Z" fill="#E6563A"/>
<path d="M22.643 13.7923L20.8176 15.6177C19.6459 16.7894 18.1618 17.5606 16.5255 17.8478C15.1619 18.0872 13.7796 17.9762 12.4871 17.5321L11.0575 18.9617C10.3522 19.667 9.20373 19.6675 8.49792 18.9617L7.24988 17.7136L22.606 2.3576C22.6188 2.36947 22.6307 2.38134 22.643 2.39359C25.7856 5.53621 25.7856 10.6497 22.643 13.7923Z" fill="#D9472B"/>
</g>
<defs>
<clipPath id="clip0_480_108">
<rect width="25" height="25" fill="white"/>
</clipPath>
</defs>
</svg>
